<svg width="24" height="24" viewBox="0 0 24 24" fill="none" xmlns="http://www.w3.org/2000/svg">
<path d="M2.79856 13.8071L1.62186 13.634C1.19045 13.5705 0.834774 13.2594 0.710539 12.8367L0.0144872 10.4687C-0.0151258 10.368 0.000279542 10.2594 0.0642083 10.1765C0.839907 9.17108 3.20087 7.39359 7.28253 7.39359C7.35388 7.39359 7.44372 7.29075 7.58616 7.12769C8.13088 6.50412 9.44482 5 13.4356 5C16.6424 5 19.3429 5.97119 21.3035 6.67631C22.4209 7.07816 23.298 7.39359 23.8916 7.39359C24.1017 7.39359 23.9697 8.355 23.805 9.55428C23.6954 10.3529 23.5712 11.257 23.524 12.053C23.502 12.4229 23.2929 12.7603 22.9614 12.9184L21.6111 13.5625L21.5873 13.5629C21.6311 13.3412 21.6541 13.1118 21.6541 12.8771C21.6541 10.9543 20.1129 9.3955 18.2118 9.3955C16.3107 9.3955 14.7695 10.9543 14.7695 12.8771C14.7695 13.153 14.8012 13.4213 14.8612 13.6787L9.75088 13.7667C9.82486 13.4827 9.86426 13.1846 9.86426 12.8771C9.86426 10.9543 8.3231 9.3955 6.42198 9.3955C4.52085 9.3955 2.97969 10.9543 2.97969 12.8771C2.97969 13.213 3.02671 13.5377 3.11445 13.845C3.00888 13.8352 2.90355 13.8225 2.79856 13.8071Z" fill="white"/>
<path d="M9.17581 12.9206C9.17581 14.4589 7.94287 15.7059 6.42198 15.7059C4.90108 15.7059 3.66815 14.4589 3.66815 12.9206C3.66815 11.3824 4.90108 10.1353 6.42198 10.1353C7.94287 10.1353 9.17581 11.3824 9.17581 12.9206Z" fill="white"/>
<path d="M20.9656 12.9206C20.9656 14.4589 19.7327 15.7059 18.2118 15.7059C16.6909 15.7059 15.458 14.4589 15.458 12.9206C15.458 11.3824 16.6909 10.1353 18.2118 10.1353C19.7327 10.1353 20.9656 11.3824 20.9656 12.9206Z" fill="white"/>
<path d="M0 18H23.25V16.4706H0V18Z" fill="white"/>
</svg>
