<svg width="48" height="48" viewBox="0 0 48 48" fill="none" xmlns="http://www.w3.org/2000/svg">
<circle cx="24" cy="24" r="24" fill="white" fill-opacity="0.6"/>
<path d="M35 25.8741V34H30.2837V26.4186C30.2837 24.515 29.6027 23.2151 27.8951 23.2151C26.5919 23.2151 25.8177 24.0903 25.4759 24.9377C25.3517 25.2406 25.3197 25.6611 25.3197 26.0859V33.9997H20.603C20.603 33.9997 20.6663 21.1593 20.603 19.8302H25.32V21.8381C25.3105 21.8539 25.2972 21.8694 25.2887 21.8845H25.32V21.8381C25.9468 20.8747 27.0646 19.4975 29.5707 19.4975C32.6737 19.4975 35 21.5226 35 25.8741ZM15.6689 13C14.0555 13 13 14.0579 13 15.4478C13 16.8082 14.0249 17.8967 15.607 17.8967H15.6376C17.2827 17.8967 18.3055 16.8082 18.3055 15.4478C18.2742 14.0579 17.2827 13 15.6689 13ZM13.2803 34H17.9953V19.8302H13.2803V34Z" fill="#141414"/>
<path fill-rule="evenodd" clip-rule="evenodd" d="M35 34V25.8741C35 21.5226 32.6737 19.4975 29.5707 19.4975C27.0646 19.4975 25.9468 20.8747 25.32 21.8381V19.8302H20.603C20.6663 21.1593 20.603 33.9997 20.603 33.9997H25.3197V26.0859C25.3197 25.6611 25.3517 25.2406 25.4759 24.9377C25.8177 24.0903 26.5919 23.2151 27.8951 23.2151C29.6027 23.2151 30.2837 24.515 30.2837 26.4186V34H35ZM15.6689 13C14.0555 13 13 14.0579 13 15.4478C13 16.8082 14.0249 17.8967 15.607 17.8967H15.6376C17.2827 17.8967 18.3055 16.8082 18.3055 15.4478C18.2742 14.0579 17.2827 13 15.6689 13ZM13.2803 34H17.9953V19.8302H13.2803V34Z" fill="#141414"/>
</svg>
