<svg width="218" height="30" viewBox="0 0 218 30" fill="none" xmlns="http://www.w3.org/2000/svg">
<path d="M10.4555 27.0847C5.74852 27.0847 2.74898 26.2791 1.45687 24.6678C0.164766 23.0447 -0.26786 21.01 0.158997 18.5636H8.06739C7.81358 20.0926 8.03278 20.9982 8.72498 21.2805C9.42872 21.551 10.2997 21.6863 11.338 21.6863C12.3648 21.6863 13.2704 21.5804 14.0549 21.3687C14.8394 21.157 15.2893 20.7218 15.4047 20.0632C15.5316 19.3105 15.0413 18.8224 13.9338 18.5989C12.8378 18.3637 11.3438 18.0873 9.45179 17.7697C5.92157 17.0876 3.67192 16.2173 2.70283 15.1587C1.73375 14.1002 1.32997 12.6771 1.49148 10.8894C1.61839 8.7253 2.67399 6.85525 4.6583 5.27923C6.65415 3.70322 9.93056 2.91521 14.4876 2.91521C19.033 2.91521 21.9575 3.75614 23.2612 5.43801C24.5764 7.10812 25.0378 9.0899 24.6456 11.3834H16.7372C16.991 9.88967 16.7545 9.01933 16.0277 8.77234C15.3124 8.51359 14.476 8.38422 13.5185 8.38422C12.4456 8.38422 11.4996 8.48419 10.6804 8.68413C9.86134 8.88407 9.39988 9.28984 9.29605 9.90143C9.15761 10.7718 9.6133 11.3187 10.6631 11.5421C11.7245 11.7538 13.2704 12.0361 15.3009 12.3889C18.958 13.1064 21.2769 13.9003 22.2575 14.7706C23.2381 15.6409 23.6131 17.0229 23.3823 18.9165C23.1401 21.1629 22.0729 23.0859 20.1809 24.6854C18.2889 26.2849 15.0471 27.0847 10.4555 27.0847Z" fill="#141414"/>
<path d="M23.7563 26.9612L27.8749 3.14455H35.7833L34.1393 12.6006H41.1305L42.7745 3.14455H50.6829L46.5643 26.9612H38.6559L40.196 18.0344H33.1875L31.6647 26.9612H23.7563Z" fill="#141414"/>
<path d="M49.1262 26.9612L53.2621 3.14455H61.1186L57 26.9612H49.1262Z" fill="#141414"/>
<path d="M59.7034 26.9612L63.8393 3.14455H78.1678C81.3866 3.14455 83.2613 4.06194 83.792 5.8967C84.3342 7.7197 84.5361 9.56623 84.3976 11.4363C84.2707 13.7885 83.5382 15.9938 82.1999 18.052C80.8732 20.0985 78.5947 21.1217 75.3644 21.1217H68.6155L67.6118 26.9612H59.7034ZM69.5673 15.688H73.7897C74.5511 15.688 75.1625 15.4292 75.624 14.9117C76.097 14.3825 76.4085 13.3887 76.5585 11.9303C76.72 10.6365 76.6912 9.75441 76.472 9.28396C76.2643 8.81351 75.7798 8.57828 75.0183 8.57828H70.7959L69.5673 15.688Z" fill="#141414"/>
<path d="M85.9421 26.9612L86.0979 3.14455H94.4735L93.2967 21.1217H93.3487L99.3016 3.14455H109.598L109.339 21.1394H109.39L114.565 3.14455H123.217L114.98 26.9612H102.936L103.68 8.57828H103.628L97.9518 26.9612H85.9421Z" fill="#141414"/>
<path d="M120.842 26.9612L124.978 3.14455H132.834L128.716 26.9612H120.842Z" fill="#141414"/>
<path d="M142.598 27.0847C137.891 27.0847 134.892 26.2791 133.6 24.6678C132.307 23.0447 131.875 21.01 132.302 18.5636H140.21C139.956 20.0926 140.176 20.9982 140.868 21.2805C141.571 21.551 142.442 21.6863 143.481 21.6863C144.508 21.6863 145.413 21.5804 146.198 21.3687C146.982 21.157 147.432 20.7218 147.547 20.0632C147.674 19.3105 147.184 18.8224 146.077 18.5989C144.981 18.3637 143.487 18.0873 141.595 17.7697C138.064 17.0876 135.815 16.2173 134.846 15.1587C133.876 14.1002 133.473 12.6771 133.634 10.8894C133.761 8.7253 134.817 6.85525 136.801 5.27923C138.797 3.70322 142.073 2.91521 146.63 2.91521C151.176 2.91521 154.1 3.75614 155.404 5.43801C156.719 7.10812 157.181 9.0899 156.788 11.3834H148.88C149.134 9.88967 148.897 9.01933 148.17 8.77234C147.455 8.51359 146.619 8.38422 145.661 8.38422C144.588 8.38422 143.642 8.48419 142.823 8.68413C142.004 8.88407 141.543 9.28984 141.439 9.90143C141.3 10.7718 141.756 11.3187 142.806 11.5421C143.867 11.7538 145.413 12.0361 147.444 12.3889C151.101 13.1064 153.42 13.9003 154.4 14.7706C155.381 15.6409 155.756 17.0229 155.525 18.9165C155.283 21.1629 154.216 23.0859 152.324 24.6854C150.432 26.2849 147.19 27.0847 142.598 27.0847Z" fill="#141414"/>
<path d="M155.536 26.9612L159.654 3.14455H178.119L177.167 8.57828H166.628L165.971 12.4066H175.661L174.761 17.5757H165.071L164.396 21.5275H174.935L174 26.9612H155.536Z" fill="#141414"/>
<path d="M209.682 8.65739H189.678L196.996 1.33899H217V21.3426L209.682 28.661V8.65739Z" fill="#141414"/>
<path d="M202.428 28.661C195.387 28.661 189.678 22.9525 189.678 15.9107H202.428V28.661Z" fill="#141414"/>
</svg>
