<svg width="217" height="30" viewBox="0 0 217 30" fill="none" xmlns="http://www.w3.org/2000/svg">
<path d="M12.7378 30C7.00335 30 3.34905 29 1.77489 27C0.200732 24.9854 -0.326331 22.4599 0.193704 19.4234H9.82841C9.5192 21.3212 9.78625 22.4453 10.6295 22.7956C11.4869 23.1314 12.5481 23.2993 13.813 23.2993C15.0639 23.2993 16.1672 23.1679 17.123 22.9051C18.0787 22.6423 18.6268 22.1022 18.7674 21.2847C18.922 20.3504 18.3247 19.7445 16.9754 19.4672C15.6402 19.1752 13.82 18.8321 11.515 18.438C7.21418 17.5912 4.47345 16.511 3.29283 15.1971C2.11221 13.8832 1.62029 12.1168 1.81706 9.89781C1.97166 7.21168 3.2577 4.89051 5.67516 2.93431C8.10667 0.978102 12.0983 0 17.65 0C23.1877 0 26.7506 1.0438 28.3389 3.13139C29.9411 5.20438 30.5033 7.66423 30.0255 10.511H20.3908C20.7 8.65694 20.4118 7.57664 19.5264 7.27007C18.655 6.9489 17.636 6.78832 16.4694 6.78832C15.1623 6.78832 14.0098 6.91241 13.0119 7.16058C12.014 7.40876 11.4518 7.91241 11.3253 8.67153C11.1566 9.75182 11.7118 10.4307 12.9908 10.708C14.2838 10.9708 16.1672 11.3212 18.6409 11.7591C23.0963 12.6496 25.9214 13.635 27.1161 14.7153C28.3107 15.7956 28.7675 17.5109 28.4864 19.8613C28.1913 22.6496 26.8912 25.0365 24.5862 27.0219C22.2811 29.0073 18.3317 30 12.7378 30Z" fill="#141414"/>
<path d="M28.942 29.8467L33.9597 0.284672H43.5944L41.5915 12.0219H50.1089L52.1117 0.284672H61.7464L56.7288 29.8467H47.0941L48.9704 18.7664H40.432L38.5767 29.8467H28.942Z" fill="#141414"/>
<path d="M59.85 29.8467L64.8887 0.284672H74.4601L69.4425 29.8467H59.85Z" fill="#141414"/>
<path d="M72.736 29.8467L77.7747 0.284672H95.231C99.1524 0.284672 101.436 1.42336 102.083 3.70073C102.743 5.9635 102.989 8.25547 102.821 10.5766C102.666 13.4964 101.774 16.2336 100.143 18.7883C98.5269 21.3285 95.7511 22.5985 91.8157 22.5985H83.5935L82.3707 29.8467H72.736ZM84.753 15.854H89.8972C90.8248 15.854 91.5697 15.5328 92.1319 14.8905C92.7082 14.2336 93.0876 13 93.2704 11.1898C93.4671 9.58394 93.432 8.48905 93.1649 7.90511C92.912 7.32117 92.3216 7.0292 91.394 7.0292H86.2499L84.753 15.854Z" fill="#141414"/>
<path d="M104.702 29.8467L104.892 0.284672H115.096L113.662 22.5985H113.726L120.978 0.284672H133.522L133.206 22.6204H133.269L139.573 0.284672H150.114L140.079 29.8467H125.405L126.312 7.0292H126.249L119.334 29.8467H104.702Z" fill="#141414"/>
<path d="M147.221 29.8467L152.259 0.284672H161.831L156.813 29.8467H147.221Z" fill="#141414"/>
<path d="M173.726 30C167.991 30 164.337 29 162.763 27C161.189 24.9854 160.662 22.4599 161.182 19.4234H170.816C170.507 21.3212 170.774 22.4453 171.618 22.7956C172.475 23.1314 173.536 23.2993 174.801 23.2993C176.052 23.2993 177.155 23.1679 178.111 22.9051C179.067 22.6423 179.615 22.1022 179.755 21.2847C179.91 20.3504 179.313 19.7445 177.963 19.4672C176.628 19.1752 174.808 18.8321 172.503 18.438C168.202 17.5912 165.461 16.511 164.281 15.1971C163.1 13.8832 162.608 12.1168 162.805 9.89781C162.96 7.21168 164.246 4.89051 166.663 2.93431C169.095 0.978102 173.086 0 178.638 0C184.176 0 187.739 1.0438 189.327 3.13139C190.929 5.20438 191.491 7.66423 191.013 10.511H181.379C181.688 8.65694 181.4 7.57664 180.514 7.27007C179.643 6.9489 178.624 6.78832 177.457 6.78832C176.15 6.78832 174.998 6.91241 174 7.16058C173.002 7.40876 172.44 7.91241 172.313 8.67153C172.145 9.75182 172.7 10.4307 173.979 10.708C175.272 10.9708 177.155 11.3212 179.629 11.7591C184.084 12.6496 186.909 13.635 188.104 14.7153C189.299 15.7956 189.756 17.5109 189.474 19.8613C189.179 22.6496 187.879 25.0365 185.574 27.0219C183.269 29.0073 179.32 30 173.726 30Z" fill="#141414"/>
<path d="M189.487 29.8467L194.505 0.284672H217L215.84 7.0292H203.001L202.2 11.781H214.006L212.91 18.1971H201.104L200.282 23.1022H213.121L211.982 29.8467H189.487Z" fill="#141414"/>
</svg>
