<svg width="48" height="48" viewBox="0 0 48 48" fill="none" xmlns="http://www.w3.org/2000/svg">
<circle cx="24" cy="24" r="24" fill="white" fill-opacity="0.6"/>
<path d="M11.737 16.967C11.463 16.6874 11 16.889 11 17.288V30.5952C11 30.998 11.4705 31.1979 11.7424 30.9106L18.1495 24.141C18.3173 23.9637 18.3149 23.6788 18.1442 23.5046L11.737 16.967ZM29.8558 23.5046C29.6851 23.6788 29.6827 23.9637 29.8505 24.141L36.2576 30.9106C36.5295 31.1979 37 30.998 37 30.5952V17.288C37 16.889 36.537 16.6874 36.263 16.967L29.8558 23.5046Z" fill="#141414"/>
<path d="M34.9868 15.7711C35.2637 15.4889 35.0712 15 34.6832 15H13.3573C12.9697 15 12.7771 15.4881 13.0532 15.7706L23.6964 26.6594C23.8649 26.8318 24.1353 26.8321 24.3041 26.66L34.9868 15.7711Z" fill="#141414"/>
<path d="M24.3033 29.1813C24.1348 29.3528 23.8652 29.3528 23.6967 29.1813L19.9757 25.3945C19.8049 25.2207 19.5309 25.2234 19.3634 25.4004L12.8945 32.2345C12.6252 32.5191 12.8193 33 13.2036 33H34.7964C35.1807 33 35.3748 32.5191 35.1055 32.2345L28.6366 25.4004C28.4691 25.2234 28.1951 25.2207 28.0243 25.3945L24.3033 29.1813Z" fill="#141414"/>
</svg>
