<svg width="32" height="33" viewBox="0 0 32 33" fill="none" xmlns="http://www.w3.org/2000/svg">
<path d="M0 23.5931H31" stroke="black" stroke-width="2"/>
<path d="M3.73142 19.11L2.16249 18.8837C1.58726 18.8007 1.11303 18.3938 0.947386 17.8411L0.0193163 14.7445C-0.0201678 14.6127 0.000372682 14.4707 0.085611 14.3623C1.11988 13.0476 4.26782 10.7232 9.71004 10.7232C9.80518 10.7232 9.92496 10.5887 10.1149 10.3754C10.8412 9.56001 12.5931 7.59308 17.9142 7.59308C22.1899 7.59308 25.7905 8.8631 28.4047 9.78518C29.8946 10.3107 31.064 10.7232 31.8554 10.7232C32.1357 10.7232 31.9596 11.9804 31.74 13.5487C31.5938 14.593 31.4283 15.7754 31.3653 16.8162C31.336 17.3 31.0571 17.7412 30.6153 17.9479L28.8147 18.7902L28.7831 18.7907C28.8415 18.5008 28.8721 18.2009 28.8721 17.8939C28.8721 15.3794 26.8172 13.341 24.2824 13.341C21.7476 13.341 19.6927 15.3794 19.6927 17.8939C19.6927 18.2546 19.735 18.6056 19.8149 18.9421L13.0012 19.0572C13.0998 18.6858 13.1524 18.296 13.1524 17.8939C13.1524 15.3794 11.0975 13.341 8.56263 13.341C6.0278 13.341 3.97292 15.3794 3.97292 17.8939C3.97292 18.3331 4.03561 18.7578 4.15261 19.1596C4.01184 19.1468 3.8714 19.1302 3.73142 19.11Z" fill="black"/>
<path d="M12.2344 17.9508C12.2344 19.9624 10.5905 21.5931 8.56263 21.5931C6.53477 21.5931 4.89086 19.9624 4.89086 17.9508C4.89086 15.9392 6.53477 14.3085 8.56263 14.3085C10.5905 14.3085 12.2344 15.9392 12.2344 17.9508Z" fill="black"/>
<path d="M24.2824 21.5931C26.3103 21.5931 27.9542 19.9624 27.9542 17.9508C27.9542 15.9392 26.3103 14.3085 24.2824 14.3085C22.2546 14.3085 20.6106 15.9392 20.6106 17.9508C20.6106 19.9624 22.2546 21.5931 24.2824 21.5931Z" fill="black"/>
</svg>
