<svg width="36" height="36" viewBox="0 0 36 36" fill="none" xmlns="http://www.w3.org/2000/svg">
<path fill-rule="evenodd" clip-rule="evenodd" d="M21.4359 25.5698C19.9317 26.4339 18.1924 26.9274 16.3392 26.9274C10.629 26.9274 6 22.2426 6 16.4637C6 10.6847 10.629 6 16.3392 6C22.0494 6 26.6784 10.6847 26.6784 16.4637C26.6784 18.7082 25.9801 20.7876 24.7914 22.4916L30 27.763L26.8015 31L21.4359 25.5698ZM23.232 16.4637C23.232 20.3163 20.146 23.4395 16.3392 23.4395C12.5324 23.4395 9.4464 20.3163 9.4464 16.4637C9.4464 12.6111 12.5324 9.48789 16.3392 9.48789C20.146 9.48789 23.232 12.6111 23.232 16.4637Z" fill="black"/>
</svg>
