<svg width="37" height="36" viewBox="0 0 37 36" fill="none" xmlns="http://www.w3.org/2000/svg">
<path d="M24.0588 25.5C24.7141 25.5 25.3425 25.7634 25.8058 26.2322C26.2691 26.7011 26.5294 27.337 26.5294 28C26.5294 27.337 26.7897 26.7011 27.253 26.2322C27.7164 25.7634 28.3448 25.5 29 25.5C28.3448 25.5 27.7164 25.2366 27.253 24.7678C26.7897 24.2989 26.5294 23.663 26.5294 23C26.5294 23.663 26.2691 24.2989 25.8058 24.7678C25.3425 25.2366 24.7141 25.5 24.0588 25.5ZM24.0588 10.5C24.7141 10.5 25.3425 10.7634 25.8058 11.2322C26.2691 11.7011 26.5294 12.337 26.5294 13C26.5294 12.337 26.7897 11.7011 27.253 11.2322C27.7164 10.7634 28.3448 10.5 29 10.5C28.3448 10.5 27.7164 10.2366 27.253 9.76777C26.7897 9.29893 26.5294 8.66304 26.5294 8C26.5294 8.66304 26.2691 9.29893 25.8058 9.76777C25.3425 10.2366 24.7141 10.5 24.0588 10.5ZM15.4118 25.5C15.4118 23.5109 16.1926 21.6032 17.5826 20.1967C18.9726 18.7902 20.8578 18 22.8235 18C20.8578 18 18.9726 17.2098 17.5826 15.8033C16.1926 14.3968 15.4118 12.4891 15.4118 10.5C15.4118 12.4891 14.6309 14.3968 13.2409 15.8033C11.8509 17.2098 9.96572 18 8 18C9.96572 18 11.8509 18.7902 13.2409 20.1967C14.6309 21.6032 15.4118 23.5109 15.4118 25.5Z" fill="black" stroke="black" stroke-width="2" stroke-linecap="round" stroke-linejoin="round"/>
</svg>
