<svg width="109" height="20" viewBox="0 0 109 20" fill="none" xmlns="http://www.w3.org/2000/svg">
<path d="M10.6667 0L12.9119 6.90983H20.1773L14.2995 11.1803L16.5446 18.0902L10.6667 13.8197L4.7889 18.0902L7.03404 11.1803L1.15618 6.90983H8.42161L10.6667 0Z" fill="#F5D538"/>
<path d="M32.6667 0L34.9119 6.90983H42.1773L36.2995 11.1803L38.5446 18.0902L32.6667 13.8197L26.7889 18.0902L29.034 11.1803L23.1562 6.90983H30.4216L32.6667 0Z" fill="#F5D538"/>
<path d="M54.6667 0L56.9119 6.90983H64.1773L58.2995 11.1803L60.5446 18.0902L54.6667 13.8197L48.7889 18.0902L51.034 11.1803L45.1562 6.90983H52.4216L54.6667 0Z" fill="#F5D538"/>
<path d="M76.6667 0L78.9119 6.90983H86.1773L80.2995 11.1803L82.5446 18.0902L76.6667 13.8197L70.7889 18.0902L73.034 11.1803L67.1562 6.90983H74.4216L76.6667 0Z" fill="#F5D538"/>
<path d="M98.6667 0L100.912 6.90983H108.177L102.299 11.1803L104.545 18.0902L98.6667 13.8197L92.7889 18.0902L95.034 11.1803L89.1562 6.90983H96.4216L98.6667 0Z" fill="#F5D538"/>
</svg>
