<svg width="108" height="19" viewBox="0 0 108 19" fill="none" xmlns="http://www.w3.org/2000/svg">
<mask id="mask0_102_85" style="mask-type:alpha" maskUnits="userSpaceOnUse" x="0" y="0" width="108" height="19">
<path d="M9.51056 0.454895L11.7557 7.36473H19.0211L13.1433 11.6352L15.3884 18.5451L9.51056 14.2746L3.63271 18.5451L5.87785 11.6352L0 7.36473H7.26542L9.51056 0.454895Z" fill="#F5D538"/>
<path d="M31.5106 0.454895L33.7557 7.36473H41.0211L35.1433 11.6352L37.3884 18.5451L31.5106 14.2746L25.6327 18.5451L27.8779 11.6352L22 7.36473H29.2654L31.5106 0.454895Z" fill="#F5D538"/>
<path d="M53.5106 0.454895L55.7557 7.36473H63.0211L57.1433 11.6352L59.3884 18.5451L53.5106 14.2746L47.6327 18.5451L49.8779 11.6352L44 7.36473H51.2654L53.5106 0.454895Z" fill="#F5D538"/>
<path d="M75.5106 0.454895L77.7557 7.36473H85.0211L79.1433 11.6352L81.3884 18.5451L75.5106 14.2746L69.6327 18.5451L71.8779 11.6352L66 7.36473H73.2654L75.5106 0.454895Z" fill="#F5D538"/>
<path d="M97.5106 0.454895L99.7557 7.36473H107.021L101.143 11.6352L103.388 18.5451L97.5106 14.2746L91.6327 18.5451L93.8779 11.6352L88 7.36473H95.2654L97.5106 0.454895Z" fill="#F5D538"/>
</mask>
<g mask="url(#mask0_102_85)">
<path d="M9.51056 0.454895L11.7557 7.36473H19.0211L13.1433 11.6352L15.3884 18.5451L9.51056 14.2746L3.63271 18.5451L5.87785 11.6352L0 7.36473H7.26542L9.51056 0.454895Z" fill="#858585"/>
<path d="M31.5106 0.454895L33.7557 7.36473H41.0211L35.1433 11.6352L37.3884 18.5451L31.5106 14.2746L25.6327 18.5451L27.8779 11.6352L22 7.36473H29.2654L31.5106 0.454895Z" fill="#858585"/>
<path d="M53.5106 0.454895L55.7557 7.36473H63.0211L57.1433 11.6352L59.3884 18.5451L53.5106 14.2746L47.6327 18.5451L49.8779 11.6352L44 7.36473H51.2654L53.5106 0.454895Z" fill="#858585"/>
<path d="M75.5106 0.454895L77.7557 7.36473H85.0211L79.1433 11.6352L81.3884 18.5451L75.5106 14.2746L69.6327 18.5451L71.8779 11.6352L66 7.36473H73.2654L75.5106 0.454895Z" fill="#858585"/>
<path d="M97.5106 0.454895L99.7557 7.36473H107.021L101.143 11.6352L103.388 18.5451L97.5106 14.2746L91.6327 18.5451L93.8779 11.6352L88 7.36473H95.2654L97.5106 0.454895Z" fill="#858585"/>
<rect width="100" height="18" transform="matrix(1 0 0 -1 0 18.5)" fill="#F5D538"/>
</g>
</svg>
