<svg width="32" height="32" viewBox="0 0 32 32" fill="none" xmlns="http://www.w3.org/2000/svg">
<path fill-rule="evenodd" clip-rule="evenodd" d="M6.66661 9.59997C6.66661 8.82201 6.97566 8.0759 7.52576 7.52579C8.07587 6.97569 8.82197 6.66664 9.59994 6.66664H10.9333C11.7078 6.6662 12.4507 6.35944 12.9999 5.81331L13.9333 4.87997C14.2059 4.60584 14.53 4.3883 14.8869 4.23985C15.2439 4.0914 15.6267 4.01498 16.0133 4.01498C16.3999 4.01498 16.7827 4.0914 17.1396 4.23985C17.4966 4.3883 17.8207 4.60584 18.0933 4.87997L19.0266 5.81331C19.5758 6.35944 20.3187 6.6662 21.0933 6.66664H22.4266C23.2046 6.66664 23.9507 6.97569 24.5008 7.52579C25.0509 8.0759 25.3599 8.82201 25.3599 9.59997V10.9333C25.3604 11.7078 25.6671 12.4508 26.2133 13L27.1466 13.9333C27.4207 14.2059 27.6383 14.53 27.7867 14.887C27.9352 15.2439 28.0116 15.6267 28.0116 16.0133C28.0116 16.3999 27.9352 16.7827 27.7867 17.1397C27.6383 17.4966 27.4207 17.8207 27.1466 18.0933L26.2133 19.0266C25.6671 19.5759 25.3604 20.3188 25.3599 21.0933V22.4266C25.3599 23.2046 25.0509 23.9507 24.5008 24.5008C23.9507 25.0509 23.2046 25.36 22.4266 25.36H21.0933C20.3187 25.3604 19.5758 25.6672 19.0266 26.2133L18.0933 27.1466C17.8207 27.4208 17.4966 27.6383 17.1396 27.7868C16.7827 27.9352 16.3999 28.0116 16.0133 28.0116C15.6267 28.0116 15.2439 27.9352 14.8869 27.7868C14.53 27.6383 14.2059 27.4208 13.9333 27.1466L12.9999 26.2133C12.4507 25.6672 11.7078 25.3604 10.9333 25.36H9.59994C8.82197 25.36 8.07587 25.0509 7.52576 24.5008C6.97566 23.9507 6.66661 23.2046 6.66661 22.4266V21.0933C6.66617 20.3188 6.35941 19.5759 5.81328 19.0266L4.87994 18.0933C4.60581 17.8207 4.38827 17.4966 4.23982 17.1397C4.09137 16.7827 4.01495 16.3999 4.01495 16.0133C4.01495 15.6267 4.09137 15.2439 4.23982 14.887C4.38827 14.53 4.60581 14.2059 4.87994 13.9333L5.81328 13C6.35941 12.4508 6.66617 11.7078 6.66661 10.9333V9.59997ZM12 21.3992L21.4142 11.985L20 10.5708L10.5858 19.985L12 21.3992ZM12.6667 10.985C11.7462 10.985 11 11.7312 11 12.6517C11 13.5721 11.7462 14.3183 12.6667 14.3183C13.5872 14.3183 14.3334 13.5721 14.3334 12.6517C14.3334 11.7312 13.5872 10.985 12.6667 10.985ZM19.3334 17.6517C18.4129 17.6517 17.6667 18.3978 17.6667 19.3183C17.6667 20.2388 18.4129 20.985 19.3334 20.985C20.2538 20.985 21 20.2388 21 19.3183C21 18.3978 20.2538 17.6517 19.3334 17.6517Z" fill="#FE7800"/>
</svg>
