<svg width="24" height="24" viewBox="0 0 24 24" fill="none" xmlns="http://www.w3.org/2000/svg">
<path d="M22 11C22 11.9445 21.8384 12.8549 21.5386 13.7102L21.0919 13.2799C20.7047 12.9067 20.0916 12.9067 19.7043 13.2799L15.8673 16.9767L14.2957 15.4625C13.9084 15.0894 13.2953 15.0894 12.9081 15.4625L11.3062 17.0059C11.1105 17.1943 11 17.4543 11 17.7261C11 17.9977 11.1105 18.2577 11.3062 18.4462L12.883 19.9655C12.592 19.9883 12.2975 20 12 20C10.3814 20 8.8526 19.6539 7.5 19.0394L2 20L3.03949 15C2.37415 13.795 2 12.4369 2 11C2 6.02942 6.47717 2 12 2C17.5228 2 22 6.02942 22 11Z" fill="white"/>
<path d="M20.3981 14L22 15.5433L16.6682 20.6803C16.2259 21.1066 15.5087 21.1066 15.0663 20.6803L12 17.7261L13.6019 16.1826L15.8673 18.3654L20.3981 14Z" fill="white"/>
</svg>
