<svg width="36" height="36" viewBox="0 0 36 36" fill="none" xmlns="http://www.w3.org/2000/svg">
<path fill-rule="evenodd" clip-rule="evenodd" d="M7 7.5V31.5L11.5 30.5L14.5 31.5L17.5 30.5L20.5 31.5L23.5 30.5L28 31.5V7.5C28 6.70435 27.6839 5.94129 27.1213 5.37868C26.5587 4.81607 25.7957 4.5 25 4.5H10C9.20435 4.5 8.44129 4.81607 7.87868 5.37868C7.31607 5.94129 7 6.70435 7 7.5ZM16.4355 24.3296V27H18.7419V24.3873C19.5305 24.3232 20.2467 24.1311 20.8907 23.8109C21.5346 23.4907 22.0472 23.0425 22.4283 22.4661C22.8094 21.8898 23 21.1534 23 20.2568C23 19.5524 22.862 18.9825 22.586 18.547C22.3232 18.0988 21.9421 17.7465 21.4427 17.4904C20.9564 17.2214 20.3781 16.9973 19.7079 16.818C19.1953 16.6643 18.6434 16.5298 18.052 16.4146C17.4606 16.2993 16.9217 16.152 16.4355 15.9727C16.1464 15.883 15.8901 15.7678 15.6667 15.6269C15.4432 15.486 15.2658 15.3131 15.1344 15.1082C15.003 14.8905 14.9373 14.6471 14.9373 14.3782C14.9373 13.9427 15.0621 13.6097 15.3118 13.3792C15.5747 13.1358 15.9032 12.9693 16.2975 12.8797C16.7049 12.7772 17.1123 12.726 17.5197 12.726C17.9928 12.726 18.4265 12.79 18.8208 12.9181C19.2151 13.0334 19.537 13.2255 19.7867 13.4944C20.0496 13.7634 20.2007 14.1092 20.2401 14.5319H22.6452C22.632 13.7634 22.4546 13.1102 22.1129 12.5723C21.7712 12.0216 21.3178 11.5861 20.7527 11.2659C20.1876 10.9457 19.5502 10.7472 18.8405 10.6704V8H16.534V10.632C15.8244 10.6832 15.1607 10.8625 14.543 11.1699C13.9253 11.4644 13.4259 11.8871 13.0448 12.4378C12.6637 12.9757 12.4731 13.6481 12.4731 14.455C12.4731 15.3515 12.6637 16.0559 13.0448 16.5683C13.4391 17.0806 13.9582 17.4904 14.6022 17.7978C14.9964 17.9771 15.4104 18.1244 15.8441 18.2396C16.2909 18.3549 16.7575 18.4638 17.2437 18.5662C17.7431 18.6559 18.2557 18.7776 18.7814 18.9312C19.1231 19.0209 19.4188 19.1298 19.6685 19.2578C19.9313 19.3859 20.135 19.5524 20.2796 19.7573C20.4373 19.9623 20.5161 20.2312 20.5161 20.5642C20.5161 20.9612 20.3913 21.2878 20.1416 21.544C19.905 21.8001 19.5896 21.9858 19.1953 22.1011C18.8142 22.2164 18.3937 22.274 17.9337 22.274C17.4343 22.274 16.948 22.2164 16.4749 22.1011C16.0149 21.9858 15.6075 21.7873 15.2527 21.5056C14.911 21.2238 14.6613 20.8332 14.5036 20.3337H12C12.1314 21.1662 12.4008 21.8642 12.8082 22.4277C13.2288 22.9784 13.7545 23.4075 14.3853 23.7149C15.0161 24.0222 15.6995 24.2272 16.4355 24.3296Z" fill="black"/>
</svg>
