<svg width="36" height="36" viewBox="0 0 36 36" fill="none" xmlns="http://www.w3.org/2000/svg">
<path d="M2.27273 25.7294C1.56982 25.7294 1 25.1596 1 24.4567V19.147C1 19.0387 1.01382 18.9309 1.04112 18.8261L3.10654 10.8994C3.25261 10.3388 3.75883 9.94756 4.33814 9.94756H14.4273L14.4895 8.79705C14.526 8.12182 15.0841 7.59302 15.7603 7.59302H34.7273C35.4302 7.59302 36 8.16284 36 8.86574V24.4567C36 25.1596 35.4302 25.7294 34.7273 25.7294H32.1487C32.2534 25.3226 32.3091 24.8961 32.3091 24.4567C32.3091 21.645 30.0298 19.3657 27.2182 19.3657C24.4065 19.3657 22.1273 21.645 22.1273 24.4567C22.1273 24.8961 22.183 25.3226 22.2877 25.7294H14.7123C14.817 25.3226 14.8727 24.8961 14.8727 24.4567C14.8727 21.645 12.5934 19.3657 9.78181 19.3657C6.97018 19.3657 4.6909 21.645 4.6909 24.4567C4.6909 24.8961 4.74659 25.3226 4.85129 25.7294H2.27273Z" fill="black"/>
<path d="M13.8545 24.5203C13.8545 26.7696 12.0311 28.593 9.78182 28.593C7.53251 28.593 5.70909 26.7696 5.70909 24.5203C5.70909 22.271 7.53251 20.4476 9.78182 20.4476C12.0311 20.4476 13.8545 22.271 13.8545 24.5203Z" fill="black"/>
<path d="M27.2182 28.593C29.4675 28.593 31.2909 26.7696 31.2909 24.5203C31.2909 22.271 29.4675 20.4476 27.2182 20.4476C24.9689 20.4476 23.1455 22.271 23.1455 24.5203C23.1455 26.7696 24.9689 28.593 27.2182 28.593Z" fill="black"/>
</svg>
