<svg width="36" height="36" viewBox="0 0 36 36" fill="none" xmlns="http://www.w3.org/2000/svg">
<path d="M21.2024 13.6092L18.0005 7.54053L14.7986 13.6092L8.03751 14.7791L12.8198 19.6996L11.843 26.4913L18.0005 23.4636L24.158 26.4913L23.1813 19.6996L27.9635 14.7791L21.2024 13.6092Z" fill="black"/>
<path d="M23.9068 12.7525L24.945 13.0296L26.4356 10.2045L28.8232 14.7299L33.865 15.6023L30.2989 19.2715L31.0272 24.3361L26.4356 22.0784L25.0992 22.7355L25.256 23.8257L26.4356 23.2457L32.3468 26.1523L31.4091 19.6322L36.0001 14.9085L29.5094 13.7855L26.4356 7.95954L23.9068 12.7525Z" fill="black"/>
<path d="M10.9011 22.7354L10.7443 23.8256L9.56498 23.2457L3.6538 26.1523L4.59144 19.6322L0.000488281 14.9085L6.49116 13.7855L9.56498 7.95954L12.0759 12.7186L11.027 12.9754L9.56498 10.2045L7.17732 14.7299L2.13554 15.6023L5.70167 19.2715L4.97333 24.3361L9.56498 22.0784L10.9011 22.7354Z" fill="black"/>
</svg>
