<svg width="36" height="36" viewBox="0 0 36 36" fill="none" xmlns="http://www.w3.org/2000/svg">
<path fill-rule="evenodd" clip-rule="evenodd" d="M17.8334 15.9053C21.2879 15.9053 24.0883 13.1491 24.0883 9.74916C24.0883 6.34922 21.2879 3.59302 17.8334 3.59302C14.3789 3.59302 11.5785 6.34922 11.5785 9.74916C11.5785 13.1491 14.3789 15.9053 17.8334 15.9053ZM14.9903 17.3044C11.2217 17.3044 8.16675 20.3112 8.16675 24.0202V30.1764H19.2194L19.6088 27.5795L18.0456 27.7813L13.6528 28.3484L16.5946 25.0371L23.083 17.734C22.3346 17.4563 21.5236 17.3044 20.6766 17.3044H14.9903ZM27.5001 27.2458L24.8965 30.1764H27.5001V27.2458ZM23.5373 23.7306L22.0141 23.9272L23.946 21.7527L23.7328 23.1744L23.4074 25.3446L24.9305 25.1479L22.9987 27.3224L23.2118 25.9008L23.5373 23.7306Z" fill="black"/>
<path d="M26.4121 16.4819L17.8335 26.1377L21.5731 25.655L20.5327 32.5931L29.1113 22.9373L25.3717 23.42L26.4121 16.4819Z" fill="black"/>
</svg>
