<svg width="24" height="24" viewBox="0 0 24 24" fill="none" xmlns="http://www.w3.org/2000/svg">
<path fill-rule="evenodd" clip-rule="evenodd" d="M11 5C6.48701 5 2.61982 7.89166 1 12C2.61982 16.1083 6.48701 19 11 19C15.513 19 19.3802 16.1083 21 12C19.3802 7.89166 15.513 5 11 5ZM16 12C16 14.7614 13.7614 17 11 17C8.23858 17 6 14.7614 6 12C6 11.4876 6.07709 10.9931 6.22031 10.5276C6.61227 11.3958 7.48558 12 8.5 12C9.88071 12 11 10.8807 11 9.5C11 8.48558 10.3958 7.61227 9.52765 7.22031C9.99312 7.07709 10.4876 7 11 7C13.7614 7 16 9.23858 16 12Z" fill="white"/>
</svg>
