<svg width="36" height="36" viewBox="0 0 36 36" fill="none" xmlns="http://www.w3.org/2000/svg">
<path fill-rule="evenodd" clip-rule="evenodd" d="M3 9.5C3 8.11929 4.11929 7 5.5 7H30.5C31.8807 7 33 8.11929 33 9.5V25.75C33 27.1307 31.8807 28.25 30.5 28.25H28.9093V27.5034L29.6769 27.2869L30.4917 24.4766L31.9347 21.9138L30.4917 19.3509L29.6769 16.5406L26.8308 15.738L24.2502 14.3248L21.6695 15.738L18.8235 16.5406L18.0086 19.3509L16.5657 21.9138L18.0086 24.4766L18.8235 27.2869L19.5911 27.5034V28.25H5.5C4.11929 28.25 3 27.1307 3 25.75V9.5ZM26.3548 16.9025L24.25 15.75L22.1452 16.9025L19.8306 17.5553L19.1687 19.8381L18 21.9138L19.1687 23.9895L19.8306 26.2723L22.1452 26.925L24.25 28.0776L26.3548 26.925L28.6694 26.2723L29.3313 23.9895L30.5 21.9138L29.3313 19.8381L28.6694 17.5553L26.3548 16.9025ZM20.8409 32.5V27.64L21.9264 27.9461L24.25 29.2185L26.5736 27.9461L27.6591 27.64V32.5L24.25 31.2931L20.8409 32.5Z" fill="black"/>
</svg>
