<svg width="20" height="20" viewBox="0 0 20 20" fill="none" xmlns="http://www.w3.org/2000/svg">
<path d="M12.3931 11.9058L17.8281 17.3391C17.6103 17.6283 17.3321 17.8666 17.0129 18.0376C16.6938 18.2085 16.3412 18.308 15.9798 18.3291L15.8331 18.3333H4.16647C3.77978 18.3337 3.39827 18.2443 3.05206 18.0721C2.70584 17.8998 2.40439 17.6495 2.17147 17.3408L7.60563 11.9058L9.5373 13.1933L9.63397 13.2483C9.74789 13.304 9.87301 13.3329 9.9998 13.3329C10.1266 13.3329 10.2517 13.304 10.3656 13.2483L10.4623 13.1933L12.3931 11.9058Z" fill="black"/>
<path d="M1.6665 7.9458L6.19067 10.9625L1.6665 15.4875V7.9458Z" fill="black"/>
<path d="M18.333 7.9458V15.4875L13.808 10.9625L18.333 7.9458Z" fill="black"/>
<path d="M10.3665 1.75168L10.4623 1.80668L17.499 6.49751L9.99984 11.4975L2.49984 6.49751L9.53734 1.80584C9.65863 1.72521 9.79894 1.67778 9.94428 1.66828C10.0896 1.65878 10.2357 1.68753 10.3665 1.75168Z" fill="black"/>
<path d="M12.3931 11.9058L17.8281 17.3391C17.6103 17.6283 17.3321 17.8666 17.0129 18.0376C16.6938 18.2085 16.3412 18.308 15.9798 18.3291L15.8331 18.3333H4.16647C3.77978 18.3337 3.39827 18.2443 3.05206 18.0721C2.70584 17.8998 2.40439 17.6495 2.17147 17.3408L7.60563 11.9058L9.5373 13.1933L9.63397 13.2483C9.74789 13.304 9.87301 13.3329 9.9998 13.3329C10.1266 13.3329 10.2517 13.304 10.3656 13.2483L10.4623 13.1933L12.3931 11.9058Z" stroke="black"/>
<path d="M1.6665 7.9458L6.19067 10.9625L1.6665 15.4875V7.9458Z" stroke="black"/>
<path d="M18.333 7.9458V15.4875L13.808 10.9625L18.333 7.9458Z" stroke="black"/>
<path d="M10.3665 1.75168L10.4623 1.80668L17.499 6.49751L9.99984 11.4975L2.49984 6.49751L9.53734 1.80584C9.65863 1.72521 9.79894 1.67778 9.94428 1.66828C10.0896 1.65878 10.2357 1.68753 10.3665 1.75168Z" stroke="black"/>
</svg>
