<svg width="20" height="20" viewBox="0 0 20 20" fill="none" xmlns="http://www.w3.org/2000/svg">
<path d="M6.86922 6.11666L1.55255 6.8875L1.45838 6.90666C1.31583 6.94451 1.18588 7.0195 1.08179 7.124C0.977707 7.22849 0.903219 7.35874 0.865934 7.50143C0.82865 7.64413 0.829905 7.79417 0.869572 7.93622C0.909239 8.07828 0.985896 8.20726 1.09172 8.31L4.94338 12.0592L4.03505 17.355L4.02422 17.4467C4.01549 17.5941 4.0461 17.7412 4.11292 17.8729C4.17974 18.0046 4.28037 18.1162 4.4045 18.1963C4.52862 18.2763 4.67179 18.3219 4.81934 18.3284C4.96689 18.3349 5.11352 18.3021 5.24422 18.2333L9.99922 15.7333L14.7434 18.2333L14.8267 18.2717C14.9643 18.3258 15.1138 18.3425 15.2598 18.3198C15.4059 18.2971 15.5434 18.236 15.658 18.1427C15.7727 18.0494 15.8605 17.9273 15.9124 17.7889C15.9643 17.6504 15.9785 17.5007 15.9534 17.355L15.0442 12.0592L18.8975 8.30916L18.9625 8.23833C19.0554 8.12397 19.1163 7.98704 19.139 7.84149C19.1617 7.69594 19.1454 7.54698 19.0918 7.40977C19.0382 7.27257 18.9492 7.15202 18.8338 7.06042C18.7184 6.96883 18.5808 6.90944 18.435 6.88833L13.1184 6.11666L10.7417 1.3C10.6729 1.16044 10.5665 1.04293 10.4344 0.96075C10.3023 0.878575 10.1498 0.835022 9.99422 0.835022C9.83864 0.835022 9.68616 0.878575 9.55406 0.96075C9.42195 1.04293 9.31549 1.16044 9.24672 1.3L6.86922 6.11666Z" fill="black"/>
</svg>
