<svg width="32" height="33" viewBox="0 0 32 33" fill="none" xmlns="http://www.w3.org/2000/svg">
<path d="M6.59211 4.32307L4.46301 19.8937C6.14503 19.3428 10.9117 18.5715 16.5222 19.8937C22.1327 21.2159 25.7591 20.4446 26.8709 19.8937L29 4.32307C27.8882 4.87399 24.2618 5.64527 18.6513 4.32307C13.0408 3.00087 8.27412 3.77216 6.59211 4.32307Z" fill="black"/>
<path d="M3 30.593L6.59211 4.32307C8.27412 3.77216 13.0408 3.00087 18.6513 4.32307C24.2618 5.64527 27.8882 4.87399 29 4.32307L26.8709 19.8937C25.7591 20.4446 22.1327 21.2159 16.5222 19.8937C10.9117 18.5715 6.14503 19.3428 4.46301 19.8937" stroke="black" stroke-width="2"/>
</svg>
